<?xml version="1.0" encoding="utf-8" ?>
<svg baseProfile="tiny" height="2000" version="1.2" width="2000" xmlns="http://www.w3.org/2000/svg" xmlns:ev="http://www.w3.org/2001/xml-events" xmlns:xlink="http://www.w3.org/1999/xlink"><defs /><rect fill="white" height="185.0" width="185.0" x="1707.5" y="755.5" /><rect fill="black" height="62.9" width="185.0" x="1707.5" y="755.5" /><rect fill="black" height="122.1" width="31.45" x="1707.5" y="818.4" /><rect fill="black" height="122.1" width="29.6" x="1862.9" y="818.4" /><rect fill="black" height="31.45" width="61.05" x="1770.4" y="848.0" /><rect fill="black" height="61.05" width="29.6" x="1770.4" y="879.45" /><rect fill="black" height="61.05" width="31.45" x="1831.45" y="879.45" /><rect fill="black" height="29.6" width="31.45" x="1738.95" y="910.9" /><rect fill="black" height="29.6" width="31.45" x="1800.0" y="910.9" /><rect fill="white" height="185.0" width="185.0" x="107.5" y="755.5" /><rect fill="black" height="31.45" width="185.0" x="107.5" y="755.5" /><rect fill="black" height="92.5" width="92.5" x="107.5" y="786.95" /><rect fill="black" height="153.55" width="29.6" x="262.9" y="786.95" /><rect fill="black" height="31.45" width="31.45" x="231.45" y="848.0" /><rect fill="black" height="61.05" width="31.45" x="107.5" y="879.45" /><rect fill="black" height="61.05" width="31.45" x="200.0" y="879.45" /><rect fill="black" height="29.6" width="61.05" x="138.95" y="910.9" /><rect fill="black" height="29.6" width="31.45" x="231.45" y="910.9" /><rect fill="white" height="185.0" width="185.0" x="907.5" y="755.5" /><rect fill="black" height="31.45" width="185.0" x="907.5" y="755.5" /><rect fill="black" height="153.55" width="31.45" x="907.5" y="786.95" /><rect fill="black" height="61.05" width="61.05" x="970.4" y="786.95" /><rect fill="black" height="153.55" width="29.6" x="1062.9" y="786.95" /><rect fill="black" height="92.5" width="31.45" x="938.95" y="848.0" /><rect fill="black" height="31.45" width="62.9" x="1000.0" y="848.0" /><rect fill="black" height="61.05" width="31.45" x="1031.45" y="879.45" /><rect fill="black" height="29.6" width="61.05" x="970.4" y="910.9" /><rect fill="white" height="185.0" width="185.0" x="107.5" y="1554.5" /><rect fill="black" height="31.45" width="185.0" x="107.5" y="1554.5" /><rect fill="black" height="61.05" width="62.9" x="107.5" y="1585.95" /><rect fill="black" height="92.5" width="31.45" x="200.0" y="1585.95" /><rect fill="black" height="153.55" width="29.6" x="262.9" y="1585.95" /><rect fill="black" height="29.6" width="31.45" x="231.45" y="1617.4" /><rect fill="black" height="92.5" width="31.45" x="107.5" y="1647.0" /><rect fill="black" height="31.45" width="29.6" x="170.4" y="1647.0" /><rect fill="black" height="61.05" width="31.45" x="231.45" y="1678.45" /><rect fill="black" height="29.6" width="92.5" x="138.95" y="1709.9" /><rect fill="white" height="185.0" width="185.0" x="907.5" y="1554.5" /><rect fill="black" height="31.45" width="185.0" x="907.5" y="1554.5" /><rect fill="black" height="31.45" width="62.9" x="907.5" y="1585.95" /><rect fill="black" height="153.55" width="29.6" x="1062.9" y="1585.95" /><rect fill="black" height="122.1" width="31.45" x="907.5" y="1617.4" /><rect fill="black" height="29.6" width="61.05" x="970.4" y="1617.4" /><rect fill="black" height="31.45" width="62.9" x="1000.0" y="1647.0" /><rect fill="black" height="61.05" width="31.45" x="1000.0" y="1678.45" /><rect fill="black" height="29.6" width="61.05" x="938.95" y="1709.9" /><rect fill="black" height="29.6" width="31.45" x="1031.45" y="1709.9" /><rect fill="white" height="185.0" width="185.0" x="1707.5" y="1554.5" /><rect fill="black" height="31.45" width="185.0" x="1707.5" y="1554.5" /><rect fill="black" height="153.55" width="31.45" x="1707.5" y="1585.95" /><rect fill="black" height="31.45" width="61.05" x="1770.4" y="1585.95" /><rect fill="black" height="153.55" width="29.6" x="1862.9" y="1585.95" /><rect fill="black" height="122.1" width="31.45" x="1831.45" y="1617.4" /><rect fill="black" height="31.45" width="61.05" x="1738.95" y="1647.0" /><rect fill="black" height="29.6" width="92.5" x="1738.95" y="1709.9" /><rect fill="white" height="70.0" width="70.0" x="965.0" y="965.0" /><rect fill="black" height="11.9" width="70.0" x="965.0" y="965.0" /><rect fill="black" height="58.1" width="11.9" x="965.0" y="976.9" /><rect fill="black" height="23.1" width="35.0" x="1000.0" y="976.9" /><rect fill="black" height="11.2" width="11.9" x="976.9" y="988.8" /><rect fill="black" height="35.0" width="11.2" x="1023.8" y="1000.0" /><rect fill="black" height="23.1" width="23.1" x="976.9" y="1011.9" /><rect fill="black" height="23.1" width="11.9" x="1011.9" y="1011.9" /><rect fill="black" height="11.2" width="11.9" x="1000.0" y="1023.8" /><rect fill="white" height="30.0" width="30.0" x="985.0" y="1060.0" /><rect fill="black" height="5.1" width="30.0" x="985.0" y="1060.0" /><rect fill="black" height="24.9" width="5.1" x="985.0" y="1065.1" /><rect fill="black" height="24.9" width="4.8" x="1010.2" y="1065.1" /><rect fill="black" height="4.8" width="5.1" x="1005.1" y="1070.2" /><rect fill="black" height="5.1" width="5.1" x="1000.0" y="1075.0" /><rect fill="black" height="9.9" width="4.8" x="995.2" y="1080.1" /><rect fill="black" height="9.9" width="5.1" x="1005.1" y="1080.1" /><rect fill="black" height="4.8" width="5.1" x="990.1" y="1085.2" /><rect fill="black" height="4.8" width="5.1" x="1000.0" y="1085.2" /><rect fill="white" height="15.0" width="15.0" x="992.5" y="1115.5" /><rect fill="black" height="2.55" width="15.0" x="992.5" y="1115.5" /><rect fill="black" height="12.45" width="2.55" x="992.5" y="1118.05" /><rect fill="black" height="12.45" width="2.4" x="1005.1" y="1118.05" /><rect fill="black" height="9.9" width="4.95" x="997.6" y="1120.6" /><rect fill="black" height="4.95" width="2.55" x="995.05" y="1125.55" /><rect fill="black" height="2.4" width="2.55" x="1002.55" y="1128.1" /><rect fill="white" height="30.0" width="30.0" x="185.0" y="1060.0" /><rect fill="black" height="10.2" width="30.0" x="185.0" y="1060.0" /><rect fill="black" height="4.8" width="10.2" x="185.0" y="1070.2" /><rect fill="black" height="4.8" width="15.0" x="200.0" y="1070.2" /><rect fill="black" height="15.0" width="5.1" x="185.0" y="1075.0" /><rect fill="black" height="15.0" width="4.8" x="210.2" y="1075.0" /><rect fill="black" height="4.8" width="20.1" x="190.1" y="1085.2" /><rect fill="white" height="30.0" width="30.0" x="1785.0" y="1060.0" /><rect fill="black" height="10.2" width="30.0" x="1785.0" y="1060.0" /><rect fill="black" height="19.8" width="5.1" x="1785.0" y="1070.2" /><rect fill="black" height="4.8" width="5.1" x="1800.0" y="1070.2" /><rect fill="black" height="19.8" width="4.8" x="1810.2" y="1070.2" /><rect fill="black" height="9.9" width="5.1" x="1790.1" y="1080.1" /><rect fill="black" height="9.9" width="5.1" x="1805.1" y="1080.1" /><rect fill="black" height="4.8" width="9.9" x="1795.2" y="1085.2" /><rect fill="white" height="15.0" width="15.0" x="192.5" y="1115.5" /><rect fill="black" height="2.55" width="15.0" x="192.5" y="1115.5" /><rect fill="black" height="2.55" width="10.05" x="192.5" y="1118.05" /><rect fill="black" height="12.45" width="2.4" x="205.1" y="1118.05" /><rect fill="black" height="9.9" width="2.55" x="192.5" y="1120.6" /><rect fill="black" height="2.4" width="5.1" x="200.0" y="1120.6" /><rect fill="black" height="2.55" width="2.55" x="195.05" y="1123.0" /><rect fill="black" height="2.55" width="2.55" x="200.0" y="1123.0" /><rect fill="black" height="4.95" width="2.4" x="197.6" y="1125.55" /><rect fill="black" height="4.95" width="2.55" x="202.55" y="1125.55" /><rect fill="black" height="2.4" width="2.55" x="195.05" y="1128.1" /><rect fill="black" height="2.4" width="2.55" x="200.0" y="1128.1" /><rect fill="white" height="15.0" width="15.0" x="1792.5" y="1115.5" /><rect fill="black" height="2.55" width="15.0" x="1792.5" y="1115.5" /><rect fill="black" height="2.55" width="10.05" x="1792.5" y="1118.05" /><rect fill="black" height="12.45" width="2.4" x="1805.1" y="1118.05" /><rect fill="black" height="4.95" width="5.1" x="1792.5" y="1120.6" /><rect fill="black" height="7.5" width="4.95" x="1797.6" y="1123.0" /><rect fill="black" height="4.95" width="2.55" x="1792.5" y="1125.55" /><rect fill="black" height="4.95" width="2.55" x="1802.55" y="1125.55" /><rect fill="black" height="2.4" width="2.55" x="1795.05" y="1128.1" /></svg>